<?xml version="1.0" encoding="utf-8"?>
<!-- Generator: Adobe Illustrator 22.1.0, SVG Export Plug-In . SVG Version: 6.00 Build 0)  -->
<svg version="1.1" id="Layer_4" xmlns="http://www.w3.org/2000/svg" xmlns:xlink="http://www.w3.org/1999/xlink" x="0px" y="0px"
	 viewBox="0 0 2087.2 950" style="enable-background:new 0 0 2087.2 950;" xml:space="preserve">
<style type="text/css">
	.st0{fill:#FFFFFF;}
	.st1{fill:#CCCCCC;}
	.st2{fill:#FFFFFF;stroke:#FFFFFF;stroke-miterlimit:10;}
</style>
<title>atlas-tb-logo</title>
<path class="st0" d="M424.9,950c-55.2,0.1-100.1-44.6-100.1-99.9c0-35.8,19-68.9,50-86.8l324.8-187.5
	c47.6-27.9,108.9-11.9,136.8,35.7c27.9,47.6,11.9,108.9-35.7,136.8c-0.4,0.2-0.8,0.4-1.1,0.7L474.8,936.6
	C459.6,945.4,442.4,950,424.9,950z"/>
<path class="st0" d="M749.5,762.5c-55.2,0-100-44.8-100-100v-375c0-55.2,44.8-100,100-100s100,44.8,100,100v375
	C849.5,717.7,804.7,762.5,749.5,762.5z"/>
<path class="st0" d="M749.4,387.5c-17.5,0-34.7-4.6-49.9-13.4L374.8,186.6c-48-27.3-64.8-88.3-37.5-136.4
	c27.3-48,88.3-64.8,136.4-37.5c0.4,0.2,0.8,0.4,1.1,0.7l324.8,187.5c47.8,27.6,64.2,88.8,36.7,136.6
	C818.3,368.5,785.2,387.6,749.4,387.5z"/>
<path class="st0" d="M100.1,387.5C44.9,387.6,0,342.9,0,287.6c0-35.8,19-68.9,50-86.7L374.8,13.4c47.6-27.9,108.9-12,136.8,35.7
	c27.9,47.6,12,108.9-35.7,136.8c-0.4,0.2-0.8,0.4-1.1,0.7L150,374.1C134.8,382.9,117.6,387.5,100.1,387.5z"/>
<path class="st0" d="M100,762.5c-55.2,0-100-44.8-100-100v-375c0-55.2,44.8-100,100-100s100,44.8,100,100v375
	C200,717.7,155.2,762.5,100,762.5z"/>
<path class="st0" d="M424.7,950c-17.5,0-34.7-4.6-49.9-13.4L50,749.1c-48-27.3-64.8-88.3-37.5-136.4s88.3-64.8,136.4-37.5
	c0.4,0.2,0.8,0.4,1.2,0.7l324.8,187.5C522.6,791,539,852.2,511.4,900C493.5,931,460.4,950,424.7,950z"/>
<path class="st1" d="M1710.6,188.5c8.8-15.6,3.3-35.4-12.3-44.2c-4.9-2.8-10.4-4.2-16-4.2h-32.5c-8.3,0-15,6.7-15,15l0,0v80
	c0,8.3,6.7,15,15,15l0,0h37.5c20.7,0,37.5-16.8,37.5-37.5C1724.8,202.5,1719.3,193.3,1710.6,188.5z M1682.3,170.1
	c4.1,0,7.5,3.4,7.5,7.5s-3.4,7.5-7.5,7.5h-17.5v-15H1682.3z M1687.3,220.1h-22.5v-15h22.5c4.1,0,7.5,3.4,7.5,7.5
	C1694.8,216.7,1691.4,220.1,1687.3,220.1z"/>
<path class="st1" d="M1188.8,149.7c0-0.1-0.1-0.3-0.2-0.4s-0.2-0.5-0.3-0.7s-0.2-0.4-0.3-0.7s-0.2-0.4-0.3-0.6s-0.3-0.4-0.4-0.7
	l-0.4-0.6l-0.5-0.6l-0.4-0.5l-0.5-0.5l-0.5-0.5l-0.5-0.4c-0.2-0.2-0.4-0.3-0.6-0.5s-0.4-0.3-0.6-0.4l-0.7-0.4l-0.6-0.3l-0.7-0.4
	l-0.7-0.3l-0.5-0.2c-0.1,0-0.1,0-0.2-0.1c-0.2-0.1-0.5-0.2-0.8-0.2s-0.4-0.1-0.6-0.2l-0.8-0.2c-0.2-0.1-0.5-0.1-0.7-0.1
	s-0.5-0.1-0.8-0.1l-0.7-0.1c-0.2,0-0.5,0-0.7,0s-0.5,0-0.7,0l-0.7,0.1c-0.2,0-0.5,0-0.7,0.1s-0.5,0.1-0.7,0.1l-0.8,0.2l-0.6,0.2
	c-0.3,0.1-0.5,0.2-0.8,0.3l-0.2,0.1c-0.2,0-0.3,0.1-0.4,0.2s-0.5,0.2-0.7,0.3s-0.4,0.2-0.7,0.3l-0.6,0.4l-0.7,0.4l-0.6,0.4l-0.6,0.5
	c-0.2,0.1-0.4,0.3-0.5,0.5l-0.5,0.5l-0.5,0.5l-0.4,0.5c-0.2,0.2-0.3,0.4-0.5,0.6s-0.3,0.4-0.4,0.6s-0.3,0.4-0.4,0.7l-0.3,0.6
	c-0.1,0.2-0.2,0.4-0.3,0.6s-0.2,0.5-0.3,0.7s-0.1,0.3-0.2,0.4l-16,42.5l-16-42.5c0-0.1-0.1-0.3-0.2-0.4s-0.2-0.5-0.3-0.7
	s-0.2-0.4-0.3-0.7s-0.2-0.4-0.3-0.6s-0.3-0.4-0.4-0.7s-0.2-0.4-0.4-0.6s-0.3-0.4-0.5-0.6l-0.4-0.5l-0.5-0.5l-0.5-0.5l-0.5-0.5
	l-0.6-0.5l-0.6-0.4l-0.7-0.4l-0.6-0.4c-0.2-0.1-0.4-0.2-0.7-0.3s-0.5-0.2-0.7-0.3s-0.3-0.1-0.4-0.2l-0.2-0.1
	c-0.3-0.1-0.5-0.2-0.8-0.3l-0.6-0.2c-0.3-0.1-0.5-0.1-0.8-0.2s-0.4-0.1-0.7-0.1s-0.5-0.1-0.8-0.1l-0.7-0.1c-0.2,0-0.5,0-0.8,0
	s-0.5,0-0.7,0l-0.7,0.1c-0.2,0-0.5,0-0.7,0.1s-0.5,0.1-0.7,0.1l-0.8,0.2l-0.6,0.2c-0.3,0.1-0.5,0.2-0.8,0.3c-0.1,0-0.1,0-0.2,0.1
	l-0.4,0.2l-0.7,0.3l-0.7,0.3l-0.6,0.4l-0.7,0.4l-0.6,0.4l-0.6,0.5l-0.5,0.4c-0.2,0.2-0.4,0.3-0.5,0.5s-0.3,0.4-0.5,0.5
	s-0.3,0.4-0.5,0.5l-0.5,0.6l-0.4,0.6c-0.1,0.2-0.3,0.4-0.4,0.7s-0.2,0.4-0.3,0.6s-0.2,0.4-0.3,0.6s-0.2,0.5-0.3,0.7
	s-0.1,0.3-0.2,0.4l-30,80c-3,7.7,0.9,16.4,8.6,19.4c7.7,3,16.4-0.9,19.4-8.6c0-0.1,0.1-0.2,0.1-0.3l16-42.6l16,42.6
	c0.1,0.2,0.2,0.4,0.3,0.7c0,0.1,0.1,0.2,0.1,0.3c0.2,0.4,0.4,0.8,0.6,1.2v0.1c0.2,0.4,0.4,0.7,0.7,1.1l0.2,0.3
	c0.2,0.3,0.4,0.6,0.6,0.8l0.2,0.3c0.2,0.3,0.5,0.5,0.7,0.8l0.2,0.2c0.3,0.3,0.7,0.6,1,0.9l0.3,0.2c0.3,0.2,0.5,0.4,0.8,0.5l0.4,0.3
	c0.3,0.2,0.6,0.3,0.9,0.5l0.3,0.2c0.4,0.2,0.8,0.4,1.2,0.5h0.1l0.2,0.1c0.3,0.1,0.6,0.2,0.9,0.3l0.4,0.1c0.3,0.1,0.5,0.1,0.8,0.2
	l0.4,0.1c0.3,0.1,0.5,0.1,0.8,0.1h0.4c0.4,0,0.8,0.1,1.2,0.1l0,0c0.4,0,0.9,0,1.3,0h0.4l0.8-0.1l0.4-0.1c0.3-0.1,0.5-0.1,0.8-0.2
	l0.4-0.1c0.3-0.1,0.6-0.2,0.9-0.3l0.2-0.1h0.1c0.4-0.2,0.8-0.3,1.2-0.5l0.3-0.2c0.3-0.1,0.6-0.3,0.9-0.5l0.4-0.3
	c0.3-0.2,0.5-0.4,0.8-0.5l0.3-0.2c0.3-0.3,0.7-0.6,1-0.9l0.2-0.2c0.2-0.2,0.5-0.5,0.7-0.8l0.2-0.3c0.2-0.3,0.4-0.5,0.6-0.8l0.2-0.3
	c0.2-0.3,0.5-0.7,0.7-1.1v-0.1c0.2-0.4,0.4-0.8,0.6-1.2c0-0.1,0.1-0.2,0.1-0.3s0.2-0.4,0.3-0.7l16-42.6l16,42.6
	c3,7.7,11.7,11.6,19.4,8.6c7.6-2.9,11.5-11.5,8.7-19.1L1188.8,149.7z"/>
<path class="st1" d="M1299,143.2c-6.5-5.1-15.9-3.9-21,2.6l-23.2,29.8l-23.2-29.8c-5.1-6.5-14.5-7.7-21-2.6
	c-6.5,5.1-7.7,14.5-2.6,21l31.8,41V235c0,8.3,6.7,15,15,15s15-6.7,15-15v-29.8l31.8-41C1306.7,157.6,1305.5,148.2,1299,143.2z"/>
<path class="st1" d="M1400.4,144.4c-5.9-5.9-15.4-5.9-21.2,0l-34.4,34.4V155c0-8.3-6.7-15-15-15s-15,6.7-15,15v80
	c0,8.3,6.7,15,15,15s15-6.7,15-15v-13.7l12-12l20.1,33.5c4.3,7.1,13.5,9.4,20.6,5.1c7.1-4.3,9.4-13.5,5.2-20.6l0,0l-24-39.9
	l21.7-21.7C1406.2,159.8,1406.2,150.3,1400.4,144.4C1400.4,144.4,1400.4,144.4,1400.4,144.4z"/>
<path class="st1" d="M1530.8,156.1c-21.5,21.5-21.5,56.3,0,77.8s56.3,21.5,77.8,0s21.5-56.3,0-77.8c0,0,0,0,0,0
	C1587.1,134.7,1552.3,134.7,1530.8,156.1z M1552,212.7c-9.8-9.8-9.8-25.6,0-35.4c9.8-9.8,25.6-9.8,35.4,0c9.8,9.8,9.8,25.6,0,35.4
	C1577.6,222.4,1561.8,222.4,1552,212.7C1552.1,212.7,1552.1,212.7,1552,212.7L1552,212.7z"/>
<path class="st1" d="M1809.8,220.1h-45V210h25c8.3,0,15-6.7,15-15s-6.7-15-15-15h-25v-9.9h45c8.3,0,15-6.7,15-15c0-8.3-6.7-15-15-15
	h-59.1c-0.3,0-0.6-0.1-0.9-0.1c-8.3,0-15,6.7-15,15l0,0v80.1c0,8.3,6.7,15,15,15l0,0h60c8.3,0,15-6.7,15-15
	C1824.8,226.8,1818,220.1,1809.8,220.1z"/>
<path class="st1" d="M1504.8,180c0-22.1-17.9-40-40-40h-35c-8.3,0-15,6.7-15,15l0,0v80c0,8.3,6.7,15,15,15s15-6.7,15-15v-15h18.5
	l13.6,22.7c4.3,7.1,13.5,9.4,20.6,5.1c7.1-4.3,9.4-13.5,5.2-20.6l-10.8-17.9C1500.1,201.8,1504.8,191.2,1504.8,180z M1444.8,170h20
	c5.5,0,10,4.5,10,10s-4.5,10-10,10h-20V170z"/>
<path class="st0" d="M1240.4,474.9h-111l-21.4,45.7c-4.1,7.5-9.4,12.4-19.1,12.4c-11.7,0.3-21.4-8.9-21.7-20.6c0-0.2,0-0.5,0-0.7
	c0-3.1,0.8-6.2,2.2-9l96-213.4c3.4-7.5,9.8-12,19.5-12s16.1,4.1,19.5,12l96,213.4c1.4,2.8,2.2,5.9,2.2,9c0.1,11.7-9.3,21.3-21,21.4
	c-0.2,0-0.5,0-0.7,0c-9.8,0-15-4.5-19.1-12.4L1240.4,474.9z M1184.9,339.5l-39,95.2h78L1184.9,339.5z"/>
<path class="st0" d="M1432.8,323.4h-64.1v186.4c-0.1,12.8-10.4,23.2-23.2,23.2c-12.8,0-22.5-10.5-22.5-23.2V323.4h-64.5
	c-11.9,0.3-21.8-9.2-22-21.1c-0.3-11.9,9.2-21.8,21.1-22c0.3,0,0.6,0,0.9,0h174.4c12,0,21.7,9.7,21.8,21.8
	c0,11.9-9.7,21.4-21.5,21.4C1432.9,323.4,1432.8,323.4,1432.8,323.4z"/>
<path class="st0" d="M1487.4,530c-12.8-0.1-23.2-10.4-23.2-23.2V300.5c0.1-12.8,10.4-23.2,23.2-23.2c12.8,0,22.5,10.5,22.5,23.2
	v186.4h109.5c11.8,0,21.4,9.6,21.4,21.4c0,0,0,0,0,0c-0.1,11.8-9.5,21.4-21.4,21.7H1487.4z"/>
<path class="st0" d="M1823.4,474.9h-111l-21.4,45.7c-4.1,7.5-9.4,12.4-19.1,12.4c-11.7,0.3-21.4-8.9-21.7-20.6c0-0.2,0-0.5,0-0.7
	c0-3.1,0.8-6.2,2.2-9l96-213.4c3.4-7.5,9.8-12,19.5-12s16.1,4.1,19.5,12l96,213.4c1.4,2.8,2.2,5.9,2.2,9c0.1,11.7-9.3,21.3-21,21.4
	c-0.2,0-0.5,0-0.7,0c-9.8,0-15-4.5-19.1-12.4L1823.4,474.9z M1767.9,339.5l-39,95.2h78L1767.9,339.5z"/>
<path class="st0" d="M1990.4,534.5c-30.4,0-64.9-9.4-86.6-26.2c-7.5-6-12.8-13.5-12.8-21.8c0-11.6,7.5-19.5,19.1-19.5
	c4.1,0,8.1,1.2,11.6,3.4c20.2,12.7,34.1,24,69.4,24c36,0,50.2-14.6,50.2-31.5c0-18.4-14.6-27.8-59.6-39.8
	c-67.9-18-88.1-39.7-88.1-77.2c0-45.8,39.4-70.1,99-70.1c16.2,0.2,32.3,2.5,48,6.8c17.2,4.9,39,15.8,39,30.8
	c0,10.1-6,20.6-18.8,20.6c-3.1,0.1-6.2-0.5-9-1.9c-17.2-7.9-35.2-15.8-58.9-15.8c-33.4,0-53.6,9-53.6,28.5c0,18.4,15,24.8,60,37.9
	c51.4,15,87.8,29.6,87.8,77.6C2087.2,503.8,2054.2,534.5,1990.4,534.5z"/>
<path class="st2" d="M1265.9,603.4h-64.1v186.4c-0.1,12.8-10.4,23.2-23.2,23.2c-12.8,0-22.5-10.5-22.5-23.2V603.4h-64.5
	c-11.9,0.3-21.8-9.2-22-21.1s9.2-21.8,21.1-22c0.3,0,0.6,0,0.9,0h174.4c12,0,21.7,9.7,21.8,21.8c0,11.8-9.7,21.4-21.5,21.4
	C1266,603.4,1266,603.4,1265.9,603.4z"/>
<path class="st2" d="M1410.6,810h-90.4c-12.7-0.1-23-10.5-22.9-23.2c0,0,0,0,0,0V583.1c-0.1-12.6,10-22.8,22.6-22.9
	c0.1,0,0.2,0,0.3,0h86.6c49.9,0,78.8,25.9,78.8,61.9c0,25.1-15.8,42.8-39.8,53.6c32.6,7.5,53.2,31.1,53.2,62.6
	C1499.1,775.5,1468.7,810,1410.6,810z M1408.7,601.1h-65.6v56.6h65.6c21,0,30.8-14.2,30.8-28.9
	C1439.4,612.4,1428.2,601.1,1408.7,601.1z M1413.9,698.6h-70.9v70.5h71.2c23.6,0,39-13.9,39-36
	C1453.3,714.4,1439.1,698.6,1413.9,698.6z"/>
<path class="st1" d="M849.5,661c-0.8-55.2-46.2-99.3-101.4-98.5c-17.1,0.2-33.8,4.9-48.6,13.4l-50,28.9v57.8
	c0,55.2,44.8,100,100,100c17.1,0,33.9-4.4,48.8-12.7l1.2-0.7c2.2-1.3,4.4-2.6,6.4-4l0.3-0.2c0.5-0.3,1-0.7,1.5-1l1.2-0.8l0.6-0.4
	c10.2-7.7,18.9-17.3,25.5-28.2l0.2-0.3c0.3-0.5,0.7-1.1,1-1.6c0.3-0.5,0.6-1,0.9-1.6l0.2-0.3c6.1-11.2,10-23.4,11.6-36.1
	c0-0.3,0.1-0.5,0.1-0.8c0.1-0.5,0.1-0.9,0.2-1.4c0.1-0.6,0.1-1.3,0.2-1.9v-0.3c0.2-2.5,0.3-5,0.3-7.6L849.5,661z"/>
<path class="st1" d="M468.1,9.9l-0.5-0.2L466,8.9l-1.4-0.6l-0.6-0.2C452.3,3,439.8,0.3,427,0h-0.4c-0.6,0-1.2,0-1.8,0s-1.2,0-1.9,0
	h-0.4c-12.8,0.3-25.4,3-37.1,8l-0.6,0.2l-1.4,0.6L382,9.6l-0.5,0.2c-2.3,1.1-4.5,2.3-6.7,3.5l-1.2,0.7
	c-47.4,28.3-63,89.7-34.7,137.1c8.7,14.7,21.1,26.9,35.9,35.4l50,28.9l50-28.9c47.8-27.6,64.2-88.8,36.5-136.6
	c-8.5-14.8-20.7-27.1-35.3-35.8l-1.2-0.7C472.5,12.1,470.3,11,468.1,9.9z"/>
<path class="st1" d="M150,575.9c-47.8-27.6-109-11.2-136.6,36.6C4.9,627.3,0.3,644,0,661v1.5c0,2.6,0.1,5.1,0.3,7.6
	c0,0.1,0,0.2,0,0.3c0,0.6,0.1,1.3,0.2,1.9l0.2,1.4l0.1,0.8c1.5,12.7,5.5,24.9,11.6,36.1l0.2,0.3c0.3,0.5,0.6,1,0.9,1.6l1,1.6
	l0.2,0.3c6.6,10.9,15.3,20.5,25.5,28.1l0.6,0.4l1.2,0.8c0.5,0.3,1,0.7,1.5,1l0.3,0.2c2.1,1.4,4.2,2.8,6.4,4l1.2,0.7
	c48.2,26.9,109.1,9.7,136.1-38.5c8.3-14.9,12.7-31.6,12.7-48.7v-57.7L150,575.9z"/>
<path class="st1" d="M836.1,337.5c8.5-14.8,13.2-31.5,13.4-48.5v-1.5c0-2.6-0.1-5.1-0.3-7.6v-0.3c0-0.6-0.1-1.2-0.2-1.9
	c0-0.5-0.1-0.9-0.2-1.4c0-0.3,0-0.5-0.1-0.8c-1.5-12.7-5.5-24.9-11.6-36.1c-0.1-0.1-0.1-0.2-0.2-0.3c-0.3-0.5-0.6-1.1-0.9-1.6
	l-1-1.6l-0.2-0.3c-6.6-10.9-15.3-20.4-25.5-28.1l-0.6-0.5l-1.1-0.8l-1.5-1.1L806,205c-2.1-1.4-4.2-2.8-6.5-4l-1.3-0.7
	c-48.2-26.9-109.1-9.7-136.1,38.5c-8.3,14.9-12.7,31.7-12.7,48.7v57.7l50,28.9c47.8,27.6,108.9,11.3,136.5-36.5
	C836.1,337.6,836.1,337.5,836.1,337.5z"/>
<path class="st1" d="M200,287.5c0-55.2-44.8-100-100-100c-17.1,0-33.8,4.4-48.8,12.7l-1.3,0.7c-2.2,1.3-4.4,2.6-6.5,4l-0.3,0.2
	l-1.5,1.1l-1.1,0.8l-0.6,0.5c-10.2,7.7-18.8,17.2-25.5,28.1l-0.2,0.3l-0.9,1.6l-0.9,1.6l-0.2,0.3c-6.1,11.2-10.1,23.5-11.6,36.2
	l-0.1,0.8l-0.2,1.4c-0.1,0.6-0.1,1.2-0.2,1.9c0,0.1,0,0.2,0,0.3c-0.2,2.5-0.3,5-0.3,7.6v1.5c0.8,55.2,46.3,99.3,101.5,98.5
	c17-0.3,33.7-4.9,48.5-13.4l50-28.9V287.5z"/>
<path class="st1" d="M511.4,900c27.6-47.8,11.2-109-36.6-136.6l-50-28.9l-50,28.9c-47.8,27.6-64.2,88.8-36.6,136.6
	c8.6,14.9,20.9,27.3,35.6,36l1,0.6c2,1.1,4,2.2,6,3.2l0,0c0.8,0.4,1.5,0.7,2.3,1.1l0.9,0.4l1.1,0.5c25.4,11,54.1,11,79.5-0.1l1-0.4
	l1-0.5c0.7-0.3,1.4-0.7,2.2-1l0.2-0.1c2-1,4-2,5.9-3.1l0.8-0.5C490.4,927.4,502.8,914.9,511.4,900z"/>
</svg>
